%TF.GenerationSoftware,KiCad,Pcbnew,10.0.0*%
%TF.CreationDate,2026-04-10T19:15:22-04:00*%
%TF.ProjectId,chaser,63686173-6572-42e6-9b69-6361645f7063,rev?*%
%TF.SameCoordinates,Original*%
%TF.FileFunction,Paste,Top*%
%TF.FilePolarity,Positive*%
%FSLAX46Y46*%
G04 Gerber Fmt 4.6, Leading zero omitted, Abs format (unit mm)*
G04 Created by KiCad (PCBNEW 10.0.0) date 2026-04-10 19:15:22*
%MOMM*%
%LPD*%
G01*
G04 APERTURE LIST*
G04 Aperture macros list*
%AMRoundRect*
0 Rectangle with rounded corners*
0 $1 Rounding radius*
0 $2 $3 $4 $5 $6 $7 $8 $9 X,Y pos of 4 corners*
0 Add a 4 corners polygon primitive as box body*
4,1,4,$2,$3,$4,$5,$6,$7,$8,$9,$2,$3,0*
0 Add four circle primitives for the rounded corners*
1,1,$1+$1,$2,$3*
1,1,$1+$1,$4,$5*
1,1,$1+$1,$6,$7*
1,1,$1+$1,$8,$9*
0 Add four rect primitives between the rounded corners*
20,1,$1+$1,$2,$3,$4,$5,0*
20,1,$1+$1,$4,$5,$6,$7,0*
20,1,$1+$1,$6,$7,$8,$9,0*
20,1,$1+$1,$8,$9,$2,$3,0*%
G04 Aperture macros list end*
%ADD10RoundRect,0.150000X-0.825000X-0.150000X0.825000X-0.150000X0.825000X0.150000X-0.825000X0.150000X0*%
%ADD11RoundRect,0.250000X-0.425000X-1.425000X0.425000X-1.425000X0.425000X1.425000X-0.425000X1.425000X0*%
%ADD12RoundRect,0.250001X2.399999X-0.487499X2.399999X0.487499X-2.399999X0.487499X-2.399999X-0.487499X0*%
%ADD13RoundRect,0.250001X-2.399999X0.487499X-2.399999X-0.487499X2.399999X-0.487499X2.399999X0.487499X0*%
%ADD14R,0.660000X1.350000*%
G04 APERTURE END LIST*
D10*
%TO.C,U3*%
X162500000Y-106585000D03*
X162500000Y-107855000D03*
X162500000Y-109125000D03*
X162500000Y-110395000D03*
X167450000Y-110395000D03*
X167450000Y-109125000D03*
X167450000Y-107855000D03*
X167450000Y-106585000D03*
%TD*%
%TO.C,U1*%
X162500000Y-100000000D03*
X162500000Y-101270000D03*
X162500000Y-102540000D03*
X162500000Y-103810000D03*
X167450000Y-103810000D03*
X167450000Y-102540000D03*
X167450000Y-101270000D03*
X167450000Y-100000000D03*
%TD*%
D11*
%TO.C,REF\u002A\u002A*%
X186400000Y-106500000D03*
X180600000Y-106500000D03*
%TD*%
%TO.C,REF\u002A\u002A*%
X157400000Y-60000000D03*
X151600000Y-60000000D03*
%TD*%
D12*
%TO.C,REF\u002A\u002A*%
X144000000Y-76812500D03*
X144000000Y-67187500D03*
%TD*%
D13*
%TO.C,REF\u002A\u002A*%
X138500000Y-67187500D03*
X138500000Y-76812500D03*
%TD*%
D14*
%TO.C,REF\u002A\u002A*%
X178960000Y-67905000D03*
X178960000Y-64095000D03*
X181500000Y-67905000D03*
X181500000Y-64095000D03*
X182770000Y-67905000D03*
X182770000Y-64095000D03*
X184040000Y-67905000D03*
X184040000Y-64095000D03*
%TD*%
D11*
%TO.C,REF\u002A\u002A*%
X164100000Y-115500000D03*
X169900000Y-115500000D03*
%TD*%
%TO.C,REF\u002A\u002A*%
X195600000Y-88500000D03*
X201400000Y-88500000D03*
%TD*%
%TO.C,REF\u002A\u002A*%
X198600000Y-69000000D03*
X204400000Y-69000000D03*
%TD*%
%TO.C,REF\u002A\u002A*%
X193600000Y-57000000D03*
X199400000Y-57000000D03*
%TD*%
%TO.C,REF\u002A\u002A*%
X179100000Y-48000000D03*
X184900000Y-48000000D03*
%TD*%
%TO.C,REF\u002A\u002A*%
X163100000Y-53500000D03*
X168900000Y-53500000D03*
%TD*%
%TO.C,REF\u002A\u002A*%
X141600000Y-53000000D03*
X147400000Y-53000000D03*
%TD*%
%TO.C,REF\u002A\u002A*%
X125100000Y-48500000D03*
X130900000Y-48500000D03*
%TD*%
%TO.C,REF\u002A\u002A*%
X106600000Y-58000000D03*
X112400000Y-58000000D03*
%TD*%
%TO.C,REF\u002A\u002A*%
X101100000Y-75000000D03*
X106900000Y-75000000D03*
%TD*%
%TO.C,REF\u002A\u002A*%
X112000000Y-88000000D03*
X117800000Y-88000000D03*
%TD*%
%TO.C,REF\u002A\u002A*%
X122500000Y-101500000D03*
X128300000Y-101500000D03*
%TD*%
%TO.C,REF\u002A\u002A*%
X148600000Y-127500000D03*
X154400000Y-127500000D03*
%TD*%
%TO.C,REF\u002A\u002A*%
X134000000Y-115500000D03*
X139800000Y-115500000D03*
%TD*%
M02*
