%TF.GenerationSoftware,KiCad,Pcbnew,10.0.0*%
%TF.CreationDate,2026-04-10T19:15:22-04:00*%
%TF.ProjectId,chaser,63686173-6572-42e6-9b69-6361645f7063,rev?*%
%TF.SameCoordinates,Original*%
%TF.FileFunction,Copper,L1,Top*%
%TF.FilePolarity,Positive*%
%FSLAX46Y46*%
G04 Gerber Fmt 4.6, Leading zero omitted, Abs format (unit mm)*
G04 Created by KiCad (PCBNEW 10.0.0) date 2026-04-10 19:15:22*
%MOMM*%
%LPD*%
G01*
G04 APERTURE LIST*
G04 Aperture macros list*
%AMRoundRect*
0 Rectangle with rounded corners*
0 $1 Rounding radius*
0 $2 $3 $4 $5 $6 $7 $8 $9 X,Y pos of 4 corners*
0 Add a 4 corners polygon primitive as box body*
4,1,4,$2,$3,$4,$5,$6,$7,$8,$9,$2,$3,0*
0 Add four circle primitives for the rounded corners*
1,1,$1+$1,$2,$3*
1,1,$1+$1,$4,$5*
1,1,$1+$1,$6,$7*
1,1,$1+$1,$8,$9*
0 Add four rect primitives between the rounded corners*
20,1,$1+$1,$2,$3,$4,$5,0*
20,1,$1+$1,$4,$5,$6,$7,0*
20,1,$1+$1,$6,$7,$8,$9,0*
20,1,$1+$1,$8,$9,$2,$3,0*%
G04 Aperture macros list end*
%TA.AperFunction,NonConductor*%
%ADD10C,0.200000*%
%TD*%
%TA.AperFunction,NonConductor*%
%ADD11C,0.288088*%
%TD*%
%TA.AperFunction,NonConductor*%
%ADD12C,0.310331*%
%TD*%
%TA.AperFunction,SMDPad,CuDef*%
%ADD13RoundRect,0.150000X-0.825000X-0.150000X0.825000X-0.150000X0.825000X0.150000X-0.825000X0.150000X0*%
%TD*%
%TA.AperFunction,ComponentPad*%
%ADD14RoundRect,0.250000X-0.550000X-0.550000X0.550000X-0.550000X0.550000X0.550000X-0.550000X0.550000X0*%
%TD*%
%TA.AperFunction,ComponentPad*%
%ADD15C,1.600000*%
%TD*%
%TA.AperFunction,SMDPad,CuDef*%
%ADD16RoundRect,0.250000X-0.425000X-1.425000X0.425000X-1.425000X0.425000X1.425000X-0.425000X1.425000X0*%
%TD*%
%TA.AperFunction,SMDPad,CuDef*%
%ADD17RoundRect,0.250001X2.399999X-0.487499X2.399999X0.487499X-2.399999X0.487499X-2.399999X-0.487499X0*%
%TD*%
%TA.AperFunction,SMDPad,CuDef*%
%ADD18RoundRect,0.250001X-2.399999X0.487499X-2.399999X-0.487499X2.399999X-0.487499X2.399999X0.487499X0*%
%TD*%
%TA.AperFunction,ComponentPad*%
%ADD19RoundRect,0.250001X-0.499999X-0.499999X0.499999X-0.499999X0.499999X0.499999X-0.499999X0.499999X0*%
%TD*%
%TA.AperFunction,ComponentPad*%
%ADD20C,1.500000*%
%TD*%
%TA.AperFunction,ComponentPad*%
%ADD21R,2.350000X2.350000*%
%TD*%
%TA.AperFunction,SMDPad,CuDef*%
%ADD22R,0.660000X1.350000*%
%TD*%
%TA.AperFunction,ComponentPad*%
%ADD23R,1.900000X2.100000*%
%TD*%
%TA.AperFunction,ComponentPad*%
%ADD24O,1.900000X2.100000*%
%TD*%
%TA.AperFunction,ComponentPad*%
%ADD25C,2.000000*%
%TD*%
%TA.AperFunction,Conductor*%
%ADD26C,0.200000*%
%TD*%
G04 APERTURE END LIST*
D10*
X160500000Y-45000000D02*
X163000000Y-42500000D01*
D11*
X112616371Y-41944722D02*
X130981981Y-41944722D01*
X145026265Y-41944722D02*
X123419668Y-41944722D01*
X94610875Y-59950219D02*
X94610875Y-85157913D01*
X94610875Y-59950219D02*
X112616371Y-41944722D01*
D10*
X153500000Y-142500000D02*
X210750000Y-85750000D01*
D12*
X191128637Y-42500000D02*
X160871362Y-42500000D01*
X210112088Y-59309932D02*
X191492223Y-40690067D01*
X210500000Y-56000000D02*
X210500000Y-87808931D01*
X210500000Y-87808931D02*
X210500000Y-56000000D01*
D11*
X94610875Y-85157913D02*
X151508245Y-142055278D01*
X154389125Y-51307578D02*
X145026265Y-41944722D01*
D10*
X154000000Y-51500000D02*
X160500000Y-45000000D01*
X151508245Y-142055278D02*
X153500000Y-142500000D01*
D13*
%TO.P,U3,1,GND_1*%
%TO.N,unconnected-(U3-GND-Pad1)*%
X162500000Y-106585000D03*
%TO.P,U3,2,TRIG_2*%
%TO.N,unconnected-(U3-TRIG-Pad2)*%
X162500000Y-107855000D03*
%TO.P,U3,3,OUT_3*%
%TO.N,unconnected-(U3-OUT-Pad3)*%
X162500000Y-109125000D03*
%TO.P,U3,4,~{RST}_4*%
%TO.N,unconnected-(U3-~{RST}-Pad4)*%
X162500000Y-110395000D03*
%TO.P,U3,5,CONT_5*%
%TO.N,unconnected-(U3-CONT-Pad5)*%
X167450000Y-110395000D03*
%TO.P,U3,6,THRES_6*%
%TO.N,unconnected-(U3-THRES-Pad6)*%
X167450000Y-109125000D03*
%TO.P,U3,7,DISCH_7*%
%TO.N,unconnected-(U3-DISCH-Pad7)*%
X167450000Y-107855000D03*
%TO.P,U3,8,VCC_8*%
%TO.N,unconnected-(U3-VCC-Pad8)*%
X167450000Y-106585000D03*
%TD*%
D14*
%TO.P,U2,1,GND_1*%
%TO.N,GND*%
X170785000Y-100590000D03*
D15*
%TO.P,U2,2,TRIG_2*%
%TO.N,unconnected-(U2-TRIG-Pad2)*%
X170785000Y-103130000D03*
%TO.P,U2,3,OUT_3*%
%TO.N,unconnected-(U2-OUT-Pad3)*%
X170785000Y-105670000D03*
%TO.P,U2,4,~{RST}_4*%
%TO.N,unconnected-(U2-~{RST}-Pad4)*%
X170785000Y-108210000D03*
%TO.P,U2,5,CONT_5*%
%TO.N,unconnected-(U2-CONT-Pad5)*%
X178405000Y-108210000D03*
%TO.P,U2,6,THRES_6*%
%TO.N,unconnected-(U2-THRES-Pad6)*%
X178405000Y-105670000D03*
%TO.P,U2,7,DISCH_7*%
%TO.N,unconnected-(U2-DISCH-Pad7)*%
X178405000Y-103130000D03*
%TO.P,U2,8,VCC_8*%
%TO.N,unconnected-(U2-VCC-Pad8)*%
X178405000Y-100590000D03*
%TD*%
D13*
%TO.P,U1,1,GND_1*%
%TO.N,GND*%
X162500000Y-100000000D03*
%TO.P,U1,2,TRIG_2*%
%TO.N,Net-(U1-DISCH)*%
X162500000Y-101270000D03*
%TO.P,U1,3,OUT_3*%
%TO.N,unconnected-(U1-OUT-Pad3)*%
X162500000Y-102540000D03*
%TO.P,U1,4,~{RST}_4*%
%TO.N,Net-(U1-DISCH)*%
X162500000Y-103810000D03*
%TO.P,U1,5,CONT_5*%
%TO.N,unconnected-(U1-CONT-Pad5)*%
X167450000Y-103810000D03*
%TO.P,U1,6,THRES_6*%
%TO.N,Net-(U1-DISCH)*%
X167450000Y-102540000D03*
%TO.P,U1,7,DISCH_7*%
X167450000Y-101270000D03*
%TO.P,U1,8,VCC_8*%
X167450000Y-100000000D03*
%TD*%
D16*
%TO.P,REF\u002A\u002A,2*%
%TO.N,N/C*%
X186400000Y-106500000D03*
%TO.P,REF\u002A\u002A,1*%
X180600000Y-106500000D03*
%TD*%
%TO.P,REF\u002A\u002A,2*%
%TO.N,N/C*%
X157400000Y-60000000D03*
%TO.P,REF\u002A\u002A,1*%
X151600000Y-60000000D03*
%TD*%
D17*
%TO.P,REF\u002A\u002A,1*%
%TO.N,N/C*%
X144000000Y-76812500D03*
%TO.P,REF\u002A\u002A,2*%
X144000000Y-67187500D03*
%TD*%
D18*
%TO.P,REF\u002A\u002A,1*%
%TO.N,N/C*%
X138500000Y-67187500D03*
%TO.P,REF\u002A\u002A,2*%
X138500000Y-76812500D03*
%TD*%
D19*
%TO.P,REF\u002A\u002A,1*%
%TO.N,N/C*%
X120432500Y-68130000D03*
D20*
%TO.P,REF\u002A\u002A,4*%
X120432500Y-75750000D03*
%TO.P,REF\u002A\u002A,5*%
X128052500Y-75750000D03*
%TO.P,REF\u002A\u002A,7*%
X128052500Y-70670000D03*
%TD*%
D21*
%TO.P,REF\u002A\u002A,1*%
%TO.N,N/C*%
X151500000Y-112000000D03*
D15*
%TO.P,REF\u002A\u002A,2*%
X154375000Y-108350000D03*
%TD*%
D20*
%TO.P,REF\u002A\u002A,*%
%TO.N,*%
X175275000Y-66000000D03*
X187725000Y-66000000D03*
D22*
%TO.P,REF\u002A\u002A,1*%
%TO.N,N/C*%
X178960000Y-67905000D03*
%TO.P,REF\u002A\u002A,2*%
X178960000Y-64095000D03*
%TO.P,REF\u002A\u002A,5*%
X181500000Y-67905000D03*
%TO.P,REF\u002A\u002A,6*%
X181500000Y-64095000D03*
%TO.P,REF\u002A\u002A,7*%
X182770000Y-67905000D03*
%TO.P,REF\u002A\u002A,8*%
X182770000Y-64095000D03*
%TO.P,REF\u002A\u002A,9*%
X184040000Y-67905000D03*
%TO.P,REF\u002A\u002A,10*%
X184040000Y-64095000D03*
%TD*%
D23*
%TO.P,REF\u002A\u002A,1*%
%TO.N,N/C*%
X155000000Y-95000000D03*
D24*
%TO.P,REF\u002A\u002A,2*%
X157540000Y-95000000D03*
%TO.P,REF\u002A\u002A,3*%
X160080000Y-95000000D03*
%TO.P,REF\u002A\u002A,4*%
X162620000Y-95000000D03*
%TO.P,REF\u002A\u002A,5*%
X165160000Y-95000000D03*
%TO.P,REF\u002A\u002A,6*%
X167700000Y-95000000D03*
%TO.P,REF\u002A\u002A,7*%
X170240000Y-95000000D03*
%TO.P,REF\u002A\u002A,8*%
X172780000Y-95000000D03*
%TO.P,REF\u002A\u002A,9*%
X175320000Y-95000000D03*
%TO.P,REF\u002A\u002A,10*%
X177860000Y-95000000D03*
%TO.P,REF\u002A\u002A,11*%
X177860000Y-74680000D03*
%TO.P,REF\u002A\u002A,12*%
X175320000Y-74680000D03*
%TO.P,REF\u002A\u002A,13*%
X172780000Y-74680000D03*
%TO.P,REF\u002A\u002A,14*%
X170240000Y-74680000D03*
%TO.P,REF\u002A\u002A,15*%
X167700000Y-74680000D03*
%TO.P,REF\u002A\u002A,16*%
X165160000Y-74680000D03*
%TO.P,REF\u002A\u002A,17*%
X162620000Y-74680000D03*
%TO.P,REF\u002A\u002A,18*%
X160080000Y-74680000D03*
%TO.P,REF\u002A\u002A,19*%
X157540000Y-74680000D03*
%TO.P,REF\u002A\u002A,20*%
X155000000Y-74680000D03*
%TD*%
D25*
%TO.P,REF\u002A\u002A,1*%
%TO.N,N/C*%
X137000000Y-95000000D03*
X143500000Y-95000000D03*
%TO.P,REF\u002A\u002A,2*%
X137000000Y-99500000D03*
X143500000Y-99500000D03*
%TD*%
D16*
%TO.P,REF\u002A\u002A,1*%
%TO.N,N/C*%
X164100000Y-115500000D03*
%TO.P,REF\u002A\u002A,2*%
X169900000Y-115500000D03*
%TD*%
%TO.P,REF\u002A\u002A,1*%
%TO.N,N/C*%
X195600000Y-88500000D03*
%TO.P,REF\u002A\u002A,2*%
X201400000Y-88500000D03*
%TD*%
%TO.P,REF\u002A\u002A,1*%
%TO.N,N/C*%
X198600000Y-69000000D03*
%TO.P,REF\u002A\u002A,2*%
X204400000Y-69000000D03*
%TD*%
%TO.P,REF\u002A\u002A,1*%
%TO.N,N/C*%
X193600000Y-57000000D03*
%TO.P,REF\u002A\u002A,2*%
X199400000Y-57000000D03*
%TD*%
%TO.P,REF\u002A\u002A,1*%
%TO.N,N/C*%
X179100000Y-48000000D03*
%TO.P,REF\u002A\u002A,2*%
X184900000Y-48000000D03*
%TD*%
%TO.P,REF\u002A\u002A,1*%
%TO.N,N/C*%
X163100000Y-53500000D03*
%TO.P,REF\u002A\u002A,2*%
X168900000Y-53500000D03*
%TD*%
%TO.P,REF\u002A\u002A,1*%
%TO.N,N/C*%
X141600000Y-53000000D03*
%TO.P,REF\u002A\u002A,2*%
X147400000Y-53000000D03*
%TD*%
%TO.P,REF\u002A\u002A,1*%
%TO.N,N/C*%
X125100000Y-48500000D03*
%TO.P,REF\u002A\u002A,2*%
X130900000Y-48500000D03*
%TD*%
%TO.P,REF\u002A\u002A,1*%
%TO.N,N/C*%
X106600000Y-58000000D03*
%TO.P,REF\u002A\u002A,2*%
X112400000Y-58000000D03*
%TD*%
%TO.P,REF\u002A\u002A,1*%
%TO.N,N/C*%
X101100000Y-75000000D03*
%TO.P,REF\u002A\u002A,2*%
X106900000Y-75000000D03*
%TD*%
%TO.P,REF\u002A\u002A,1*%
%TO.N,N/C*%
X112000000Y-88000000D03*
%TO.P,REF\u002A\u002A,2*%
X117800000Y-88000000D03*
%TD*%
%TO.P,REF\u002A\u002A,1*%
%TO.N,N/C*%
X122500000Y-101500000D03*
%TO.P,REF\u002A\u002A,2*%
X128300000Y-101500000D03*
%TD*%
%TO.P,REF\u002A\u002A,1*%
%TO.N,N/C*%
X148600000Y-127500000D03*
%TO.P,REF\u002A\u002A,2*%
X154400000Y-127500000D03*
%TD*%
%TO.P,REF\u002A\u002A,1*%
%TO.N,N/C*%
X134000000Y-115500000D03*
%TO.P,REF\u002A\u002A,2*%
X139800000Y-115500000D03*
%TD*%
%TO.N,*%
D26*
X155000000Y-95000000D02*
X175320000Y-74680000D01*
X155000000Y-74680000D02*
X155000000Y-77220000D01*
X155000000Y-77220000D02*
X172780000Y-95000000D01*
X163500000Y-79000000D02*
X180500000Y-79000000D01*
X160080000Y-75580000D02*
X163500000Y-79000000D01*
X160080000Y-74680000D02*
X160080000Y-75580000D01*
X180500000Y-79000000D02*
X180500000Y-73225000D01*
X180500000Y-73225000D02*
X187725000Y-66000000D01*
X175275000Y-66000000D02*
X173840000Y-66000000D01*
X173840000Y-66000000D02*
X165160000Y-74680000D01*
X192965256Y-88500000D02*
X194625000Y-88500000D01*
X187725000Y-83259744D02*
X192965256Y-88500000D01*
X187725000Y-66000000D02*
X187725000Y-83259744D01*
X138500000Y-67187500D02*
X138500000Y-71500000D01*
X138500000Y-71500000D02*
X139000000Y-72000000D01*
X182770000Y-69730000D02*
X182770000Y-67905000D01*
X139000000Y-72000000D02*
X180500000Y-72000000D01*
X180500000Y-72000000D02*
X182770000Y-69730000D01*
X128052500Y-70670000D02*
X131170000Y-70670000D01*
X133000000Y-81000000D02*
X143500000Y-81000000D01*
X131170000Y-70670000D02*
X133000000Y-72500000D01*
X143500000Y-81000000D02*
X144500000Y-80000000D01*
X133000000Y-72500000D02*
X133000000Y-81000000D01*
X144500000Y-80000000D02*
X144000000Y-79500000D01*
X144000000Y-79500000D02*
X144000000Y-76812500D01*
X177860000Y-74680000D02*
X155000000Y-74680000D01*
X155000000Y-95000000D02*
X177860000Y-95000000D01*
X143500000Y-95000000D02*
X155000000Y-95000000D01*
X137000000Y-95000000D02*
X122000000Y-80000000D01*
X122000000Y-80000000D02*
X118000000Y-80000000D01*
X118000000Y-80000000D02*
X118000000Y-69000000D01*
X118000000Y-69000000D02*
X118870000Y-68130000D01*
X118870000Y-68130000D02*
X120432500Y-68130000D01*
X137000000Y-95000000D02*
X143500000Y-95000000D01*
X143500000Y-99500000D02*
X137000000Y-99500000D01*
X158500000Y-105500000D02*
X157000000Y-104000000D01*
X158500000Y-110500000D02*
X158500000Y-105500000D01*
X152000000Y-111500000D02*
X152000000Y-110500000D01*
X151500000Y-112000000D02*
X152000000Y-111500000D01*
X152000000Y-110500000D02*
X158500000Y-110500000D01*
X157000000Y-104000000D02*
X148000000Y-104000000D01*
X148000000Y-104000000D02*
X143500000Y-99500000D01*
X148250000Y-108350000D02*
X141500000Y-115100000D01*
X154375000Y-108350000D02*
X148250000Y-108350000D01*
X141500000Y-115100000D02*
X141175000Y-115100000D01*
X159625000Y-112000000D02*
X163125000Y-115500000D01*
X151500000Y-112000000D02*
X159625000Y-112000000D01*
%TO.N,unconnected-(U2-CONT-Pad5)*%
X152775000Y-127500000D02*
X140775000Y-115500000D01*
X154400000Y-127500000D02*
X152775000Y-127500000D01*
X164100000Y-115500000D02*
X156600000Y-123000000D01*
X156600000Y-123000000D02*
X153100000Y-123000000D01*
X153100000Y-123000000D02*
X148600000Y-127500000D01*
X128300000Y-101500000D02*
X128434744Y-101500000D01*
X140775000Y-113840256D02*
X140775000Y-115500000D01*
X140775000Y-115500000D02*
X142500000Y-115500000D01*
X128434744Y-101500000D02*
X140775000Y-113840256D01*
X154500000Y-127500000D02*
X154400000Y-127500000D01*
X175600000Y-111500000D02*
X164000000Y-111500000D01*
X180600000Y-106500000D02*
X175600000Y-111500000D01*
X164000000Y-111500000D02*
X164000000Y-112500000D01*
X164000000Y-112500000D02*
X164100000Y-112600000D01*
X164100000Y-112600000D02*
X164100000Y-115500000D01*
X195600000Y-88500000D02*
X195600000Y-91500000D01*
X195600000Y-91500000D02*
X180600000Y-106500000D01*
X198600000Y-69000000D02*
X198600000Y-69600000D01*
X198600000Y-69600000D02*
X195600000Y-72600000D01*
X195600000Y-72600000D02*
X195600000Y-88500000D01*
X193600000Y-57000000D02*
X193600000Y-64000000D01*
X193600000Y-64000000D02*
X198600000Y-69000000D01*
X179100000Y-49100000D02*
X187500000Y-57500000D01*
X179100000Y-48000000D02*
X179100000Y-49100000D01*
X188000000Y-57000000D02*
X193600000Y-57000000D01*
X187500000Y-57500000D02*
X188000000Y-57000000D01*
X164000000Y-53500000D02*
X171000000Y-46500000D01*
X163100000Y-53500000D02*
X164000000Y-53500000D01*
X171000000Y-46500000D02*
X177600000Y-46500000D01*
X177600000Y-46500000D02*
X179100000Y-48000000D01*
X152500000Y-60000000D02*
X160000000Y-52500000D01*
X162100000Y-52500000D02*
X163100000Y-53500000D01*
X151600000Y-60000000D02*
X152500000Y-60000000D01*
X160000000Y-52500000D02*
X162100000Y-52500000D01*
X142000000Y-53000000D02*
X150000000Y-61000000D01*
X141600000Y-53000000D02*
X142000000Y-53000000D01*
X150000000Y-61000000D02*
X150600000Y-61000000D01*
X150600000Y-61000000D02*
X151600000Y-60000000D01*
X125000000Y-45500000D02*
X141000000Y-45500000D01*
X125100000Y-48500000D02*
X125100000Y-45600000D01*
X125100000Y-45600000D02*
X125000000Y-45500000D01*
X141000000Y-45500000D02*
X141600000Y-46100000D01*
X141600000Y-46100000D02*
X141600000Y-53000000D01*
X106600000Y-58000000D02*
X116100000Y-48500000D01*
X116100000Y-48500000D02*
X125100000Y-48500000D01*
X101100000Y-75000000D02*
X101100000Y-63500000D01*
X101100000Y-63500000D02*
X106600000Y-58000000D01*
X112000000Y-88000000D02*
X112000000Y-85900000D01*
X112000000Y-85900000D02*
X101100000Y-75000000D01*
X122500000Y-101500000D02*
X110500000Y-89500000D01*
X110500000Y-89500000D02*
X112000000Y-88000000D01*
X134975000Y-117159744D02*
X134975000Y-115500000D01*
X140134744Y-119000000D02*
X134000000Y-119000000D01*
X148600000Y-127465256D02*
X140134744Y-119000000D01*
X134000000Y-119000000D02*
X134000000Y-118134744D01*
X134975000Y-117159744D02*
X134659744Y-117475000D01*
X148600000Y-127500000D02*
X148600000Y-127465256D01*
X134000000Y-118134744D02*
X134975000Y-117159744D01*
X134659744Y-117475000D02*
X133340256Y-117475000D01*
X133340256Y-117475000D02*
X122500000Y-106634744D01*
X122500000Y-106634744D02*
X122500000Y-101500000D01*
X169900000Y-115500000D02*
X157900000Y-127500000D01*
X157900000Y-127500000D02*
X154400000Y-127500000D01*
X186400000Y-106600000D02*
X173000000Y-120000000D01*
X186400000Y-106500000D02*
X186400000Y-106600000D01*
X173000000Y-118600000D02*
X169900000Y-115500000D01*
X173000000Y-120000000D02*
X173000000Y-118600000D01*
X201400000Y-88500000D02*
X201400000Y-89400000D01*
X186400000Y-104400000D02*
X186400000Y-106500000D01*
X201400000Y-89400000D02*
X186400000Y-104400000D01*
X204400000Y-69000000D02*
X204400000Y-85500000D01*
X204400000Y-85500000D02*
X201400000Y-88500000D01*
X199400000Y-57000000D02*
X199400000Y-57400000D01*
X199400000Y-57400000D02*
X204400000Y-62400000D01*
X204400000Y-62400000D02*
X204400000Y-69000000D01*
X184900000Y-48000000D02*
X190400000Y-48000000D01*
X190400000Y-48000000D02*
X199400000Y-57000000D01*
X170900000Y-51500000D02*
X185000000Y-51500000D01*
X168900000Y-53500000D02*
X170900000Y-51500000D01*
X185000000Y-51500000D02*
X185000000Y-51000000D01*
X185000000Y-51000000D02*
X184900000Y-50900000D01*
X184900000Y-50900000D02*
X184900000Y-48000000D01*
X160400000Y-57000000D02*
X168500000Y-57000000D01*
X157400000Y-60000000D02*
X160400000Y-57000000D01*
X168500000Y-57000000D02*
X168900000Y-56600000D01*
X168900000Y-56600000D02*
X168900000Y-53500000D01*
X149900000Y-55500000D02*
X154500000Y-55500000D01*
X154500000Y-57100000D02*
X157400000Y-60000000D01*
X147400000Y-53000000D02*
X149900000Y-55500000D01*
X154500000Y-55500000D02*
X154500000Y-57100000D01*
X139900000Y-57500000D02*
X144000000Y-57500000D01*
X144000000Y-57500000D02*
X144000000Y-56400000D01*
X130900000Y-48500000D02*
X139900000Y-57500000D01*
X144000000Y-56400000D02*
X147400000Y-53000000D01*
X112400000Y-58000000D02*
X121400000Y-58000000D01*
X121400000Y-58000000D02*
X130900000Y-48500000D01*
X106900000Y-75000000D02*
X106900000Y-63500000D01*
X106900000Y-63500000D02*
X112400000Y-58000000D01*
X117800000Y-88000000D02*
X117800000Y-87800000D01*
X117800000Y-87800000D02*
X106900000Y-76900000D01*
X106900000Y-76900000D02*
X106900000Y-75000000D01*
X128300000Y-101500000D02*
X128300000Y-101300000D01*
X128300000Y-101300000D02*
X117800000Y-90800000D01*
X117800000Y-90800000D02*
X117800000Y-88000000D01*
%TD*%
M02*
