M48
; DRILL file KiCad 10.0.0 date 2026-04-10T19:20:10
; FORMAT={-:-/ absolute / metric / decimal}
; #@! TF.CreationDate,2026-04-10T19:20:10-04:00
; #@! TF.GenerationSoftware,Kicad,Pcbnew,10.0.0
; #@! TF.FileFunction,Plated,1,2,PTH
FMAT,2
METRIC
; #@! TA.AperFunction,Plated,PTH,ComponentDrill
T1C0.800
; #@! TA.AperFunction,Plated,PTH,ComponentDrill
T2C1.000
; #@! TA.AperFunction,Plated,PTH,ComponentDrill
T3C1.020
; #@! TA.AperFunction,Plated,PTH,ComponentDrill
T4C1.090
; #@! TA.AperFunction,Plated,PTH,ComponentDrill
T5C1.100
; #@! TA.AperFunction,Plated,PTH,ComponentDrill
T6C1.820
%
G90
G05
T1
X170.785Y-100.59
X170.785Y-103.13
X170.785Y-105.67
X170.785Y-108.21
X178.405Y-100.59
X178.405Y-103.13
X178.405Y-105.67
X178.405Y-108.21
T2
X120.432Y-68.13
X120.432Y-75.75
X128.052Y-70.67
X128.052Y-75.75
X175.275Y-66.0
X187.725Y-66.0
T3
X155.0Y-74.68
X155.0Y-95.0
X157.54Y-74.68
X157.54Y-95.0
X160.08Y-74.68
X160.08Y-95.0
X162.62Y-74.68
X162.62Y-95.0
X165.16Y-74.68
X165.16Y-95.0
X167.7Y-74.68
X167.7Y-95.0
X170.24Y-74.68
X170.24Y-95.0
X172.78Y-74.68
X172.78Y-95.0
X175.32Y-74.68
X175.32Y-95.0
X177.86Y-74.68
X177.86Y-95.0
T4
X154.375Y-108.35
T5
X137.0Y-95.0
X137.0Y-99.5
X143.5Y-95.0
X143.5Y-99.5
T6
X151.5Y-112.0
M30
