%TF.GenerationSoftware,KiCad,Pcbnew,10.0.0*%
%TF.CreationDate,2026-04-10T19:15:22-04:00*%
%TF.ProjectId,chaser,63686173-6572-42e6-9b69-6361645f7063,rev?*%
%TF.SameCoordinates,Original*%
%TF.FileFunction,Legend,Top*%
%TF.FilePolarity,Positive*%
%FSLAX46Y46*%
G04 Gerber Fmt 4.6, Leading zero omitted, Abs format (unit mm)*
G04 Created by KiCad (PCBNEW 10.0.0) date 2026-04-10 19:15:22*
%MOMM*%
%LPD*%
G01*
G04 APERTURE LIST*
%ADD10C,0.150000*%
%ADD11C,0.120000*%
G04 APERTURE END LIST*
D10*
X164213095Y-104544819D02*
X164213095Y-105354342D01*
X164213095Y-105354342D02*
X164260714Y-105449580D01*
X164260714Y-105449580D02*
X164308333Y-105497200D01*
X164308333Y-105497200D02*
X164403571Y-105544819D01*
X164403571Y-105544819D02*
X164594047Y-105544819D01*
X164594047Y-105544819D02*
X164689285Y-105497200D01*
X164689285Y-105497200D02*
X164736904Y-105449580D01*
X164736904Y-105449580D02*
X164784523Y-105354342D01*
X164784523Y-105354342D02*
X164784523Y-104544819D01*
X165165476Y-104544819D02*
X165784523Y-104544819D01*
X165784523Y-104544819D02*
X165451190Y-104925771D01*
X165451190Y-104925771D02*
X165594047Y-104925771D01*
X165594047Y-104925771D02*
X165689285Y-104973390D01*
X165689285Y-104973390D02*
X165736904Y-105021009D01*
X165736904Y-105021009D02*
X165784523Y-105116247D01*
X165784523Y-105116247D02*
X165784523Y-105354342D01*
X165784523Y-105354342D02*
X165736904Y-105449580D01*
X165736904Y-105449580D02*
X165689285Y-105497200D01*
X165689285Y-105497200D02*
X165594047Y-105544819D01*
X165594047Y-105544819D02*
X165308333Y-105544819D01*
X165308333Y-105544819D02*
X165213095Y-105497200D01*
X165213095Y-105497200D02*
X165165476Y-105449580D01*
X173833095Y-97714819D02*
X173833095Y-98524342D01*
X173833095Y-98524342D02*
X173880714Y-98619580D01*
X173880714Y-98619580D02*
X173928333Y-98667200D01*
X173928333Y-98667200D02*
X174023571Y-98714819D01*
X174023571Y-98714819D02*
X174214047Y-98714819D01*
X174214047Y-98714819D02*
X174309285Y-98667200D01*
X174309285Y-98667200D02*
X174356904Y-98619580D01*
X174356904Y-98619580D02*
X174404523Y-98524342D01*
X174404523Y-98524342D02*
X174404523Y-97714819D01*
X174833095Y-97810057D02*
X174880714Y-97762438D01*
X174880714Y-97762438D02*
X174975952Y-97714819D01*
X174975952Y-97714819D02*
X175214047Y-97714819D01*
X175214047Y-97714819D02*
X175309285Y-97762438D01*
X175309285Y-97762438D02*
X175356904Y-97810057D01*
X175356904Y-97810057D02*
X175404523Y-97905295D01*
X175404523Y-97905295D02*
X175404523Y-98000533D01*
X175404523Y-98000533D02*
X175356904Y-98143390D01*
X175356904Y-98143390D02*
X174785476Y-98714819D01*
X174785476Y-98714819D02*
X175404523Y-98714819D01*
X164213095Y-97959819D02*
X164213095Y-98769342D01*
X164213095Y-98769342D02*
X164260714Y-98864580D01*
X164260714Y-98864580D02*
X164308333Y-98912200D01*
X164308333Y-98912200D02*
X164403571Y-98959819D01*
X164403571Y-98959819D02*
X164594047Y-98959819D01*
X164594047Y-98959819D02*
X164689285Y-98912200D01*
X164689285Y-98912200D02*
X164736904Y-98864580D01*
X164736904Y-98864580D02*
X164784523Y-98769342D01*
X164784523Y-98769342D02*
X164784523Y-97959819D01*
X165784523Y-98959819D02*
X165213095Y-98959819D01*
X165498809Y-98959819D02*
X165498809Y-97959819D01*
X165498809Y-97959819D02*
X165403571Y-98102676D01*
X165403571Y-98102676D02*
X165308333Y-98197914D01*
X165308333Y-98197914D02*
X165213095Y-98245533D01*
X182166666Y-104324819D02*
X181833333Y-103848628D01*
X181595238Y-104324819D02*
X181595238Y-103324819D01*
X181595238Y-103324819D02*
X181976190Y-103324819D01*
X181976190Y-103324819D02*
X182071428Y-103372438D01*
X182071428Y-103372438D02*
X182119047Y-103420057D01*
X182119047Y-103420057D02*
X182166666Y-103515295D01*
X182166666Y-103515295D02*
X182166666Y-103658152D01*
X182166666Y-103658152D02*
X182119047Y-103753390D01*
X182119047Y-103753390D02*
X182071428Y-103801009D01*
X182071428Y-103801009D02*
X181976190Y-103848628D01*
X181976190Y-103848628D02*
X181595238Y-103848628D01*
X182595238Y-103801009D02*
X182928571Y-103801009D01*
X183071428Y-104324819D02*
X182595238Y-104324819D01*
X182595238Y-104324819D02*
X182595238Y-103324819D01*
X182595238Y-103324819D02*
X183071428Y-103324819D01*
X183833333Y-103801009D02*
X183500000Y-103801009D01*
X183500000Y-104324819D02*
X183500000Y-103324819D01*
X183500000Y-103324819D02*
X183976190Y-103324819D01*
X184500000Y-103324819D02*
X184500000Y-103562914D01*
X184261905Y-103467676D02*
X184500000Y-103562914D01*
X184500000Y-103562914D02*
X184738095Y-103467676D01*
X184357143Y-103753390D02*
X184500000Y-103562914D01*
X184500000Y-103562914D02*
X184642857Y-103753390D01*
X185261905Y-103324819D02*
X185261905Y-103562914D01*
X185023810Y-103467676D02*
X185261905Y-103562914D01*
X185261905Y-103562914D02*
X185500000Y-103467676D01*
X185119048Y-103753390D02*
X185261905Y-103562914D01*
X185261905Y-103562914D02*
X185404762Y-103753390D01*
X153166666Y-57824819D02*
X152833333Y-57348628D01*
X152595238Y-57824819D02*
X152595238Y-56824819D01*
X152595238Y-56824819D02*
X152976190Y-56824819D01*
X152976190Y-56824819D02*
X153071428Y-56872438D01*
X153071428Y-56872438D02*
X153119047Y-56920057D01*
X153119047Y-56920057D02*
X153166666Y-57015295D01*
X153166666Y-57015295D02*
X153166666Y-57158152D01*
X153166666Y-57158152D02*
X153119047Y-57253390D01*
X153119047Y-57253390D02*
X153071428Y-57301009D01*
X153071428Y-57301009D02*
X152976190Y-57348628D01*
X152976190Y-57348628D02*
X152595238Y-57348628D01*
X153595238Y-57301009D02*
X153928571Y-57301009D01*
X154071428Y-57824819D02*
X153595238Y-57824819D01*
X153595238Y-57824819D02*
X153595238Y-56824819D01*
X153595238Y-56824819D02*
X154071428Y-56824819D01*
X154833333Y-57301009D02*
X154500000Y-57301009D01*
X154500000Y-57824819D02*
X154500000Y-56824819D01*
X154500000Y-56824819D02*
X154976190Y-56824819D01*
X155500000Y-56824819D02*
X155500000Y-57062914D01*
X155261905Y-56967676D02*
X155500000Y-57062914D01*
X155500000Y-57062914D02*
X155738095Y-56967676D01*
X155357143Y-57253390D02*
X155500000Y-57062914D01*
X155500000Y-57062914D02*
X155642857Y-57253390D01*
X156261905Y-56824819D02*
X156261905Y-57062914D01*
X156023810Y-56967676D02*
X156261905Y-57062914D01*
X156261905Y-57062914D02*
X156500000Y-56967676D01*
X156119048Y-57253390D02*
X156261905Y-57062914D01*
X156261905Y-57062914D02*
X156404762Y-57253390D01*
X140854819Y-73333333D02*
X140378628Y-73666666D01*
X140854819Y-73904761D02*
X139854819Y-73904761D01*
X139854819Y-73904761D02*
X139854819Y-73523809D01*
X139854819Y-73523809D02*
X139902438Y-73428571D01*
X139902438Y-73428571D02*
X139950057Y-73380952D01*
X139950057Y-73380952D02*
X140045295Y-73333333D01*
X140045295Y-73333333D02*
X140188152Y-73333333D01*
X140188152Y-73333333D02*
X140283390Y-73380952D01*
X140283390Y-73380952D02*
X140331009Y-73428571D01*
X140331009Y-73428571D02*
X140378628Y-73523809D01*
X140378628Y-73523809D02*
X140378628Y-73904761D01*
X140331009Y-72904761D02*
X140331009Y-72571428D01*
X140854819Y-72428571D02*
X140854819Y-72904761D01*
X140854819Y-72904761D02*
X139854819Y-72904761D01*
X139854819Y-72904761D02*
X139854819Y-72428571D01*
X140331009Y-71666666D02*
X140331009Y-71999999D01*
X140854819Y-71999999D02*
X139854819Y-71999999D01*
X139854819Y-71999999D02*
X139854819Y-71523809D01*
X139854819Y-70999999D02*
X140092914Y-70999999D01*
X139997676Y-71238094D02*
X140092914Y-70999999D01*
X140092914Y-70999999D02*
X139997676Y-70761904D01*
X140283390Y-71142856D02*
X140092914Y-70999999D01*
X140092914Y-70999999D02*
X140283390Y-70857142D01*
X139854819Y-70238094D02*
X140092914Y-70238094D01*
X139997676Y-70476189D02*
X140092914Y-70238094D01*
X140092914Y-70238094D02*
X139997676Y-69999999D01*
X140283390Y-70380951D02*
X140092914Y-70238094D01*
X140092914Y-70238094D02*
X140283390Y-70095237D01*
X142554819Y-73333333D02*
X142078628Y-73666666D01*
X142554819Y-73904761D02*
X141554819Y-73904761D01*
X141554819Y-73904761D02*
X141554819Y-73523809D01*
X141554819Y-73523809D02*
X141602438Y-73428571D01*
X141602438Y-73428571D02*
X141650057Y-73380952D01*
X141650057Y-73380952D02*
X141745295Y-73333333D01*
X141745295Y-73333333D02*
X141888152Y-73333333D01*
X141888152Y-73333333D02*
X141983390Y-73380952D01*
X141983390Y-73380952D02*
X142031009Y-73428571D01*
X142031009Y-73428571D02*
X142078628Y-73523809D01*
X142078628Y-73523809D02*
X142078628Y-73904761D01*
X142031009Y-72904761D02*
X142031009Y-72571428D01*
X142554819Y-72428571D02*
X142554819Y-72904761D01*
X142554819Y-72904761D02*
X141554819Y-72904761D01*
X141554819Y-72904761D02*
X141554819Y-72428571D01*
X142031009Y-71666666D02*
X142031009Y-71999999D01*
X142554819Y-71999999D02*
X141554819Y-71999999D01*
X141554819Y-71999999D02*
X141554819Y-71523809D01*
X141554819Y-70999999D02*
X141792914Y-70999999D01*
X141697676Y-71238094D02*
X141792914Y-70999999D01*
X141792914Y-70999999D02*
X141697676Y-70761904D01*
X141983390Y-71142856D02*
X141792914Y-70999999D01*
X141792914Y-70999999D02*
X141983390Y-70857142D01*
X141554819Y-70238094D02*
X141792914Y-70238094D01*
X141697676Y-70476189D02*
X141792914Y-70238094D01*
X141792914Y-70238094D02*
X141697676Y-69999999D01*
X141983390Y-70380951D02*
X141792914Y-70238094D01*
X141792914Y-70238094D02*
X141983390Y-70095237D01*
X122919166Y-65154819D02*
X122585833Y-64678628D01*
X122347738Y-65154819D02*
X122347738Y-64154819D01*
X122347738Y-64154819D02*
X122728690Y-64154819D01*
X122728690Y-64154819D02*
X122823928Y-64202438D01*
X122823928Y-64202438D02*
X122871547Y-64250057D01*
X122871547Y-64250057D02*
X122919166Y-64345295D01*
X122919166Y-64345295D02*
X122919166Y-64488152D01*
X122919166Y-64488152D02*
X122871547Y-64583390D01*
X122871547Y-64583390D02*
X122823928Y-64631009D01*
X122823928Y-64631009D02*
X122728690Y-64678628D01*
X122728690Y-64678628D02*
X122347738Y-64678628D01*
X123347738Y-64631009D02*
X123681071Y-64631009D01*
X123823928Y-65154819D02*
X123347738Y-65154819D01*
X123347738Y-65154819D02*
X123347738Y-64154819D01*
X123347738Y-64154819D02*
X123823928Y-64154819D01*
X124585833Y-64631009D02*
X124252500Y-64631009D01*
X124252500Y-65154819D02*
X124252500Y-64154819D01*
X124252500Y-64154819D02*
X124728690Y-64154819D01*
X125252500Y-64154819D02*
X125252500Y-64392914D01*
X125014405Y-64297676D02*
X125252500Y-64392914D01*
X125252500Y-64392914D02*
X125490595Y-64297676D01*
X125109643Y-64583390D02*
X125252500Y-64392914D01*
X125252500Y-64392914D02*
X125395357Y-64583390D01*
X126014405Y-64154819D02*
X126014405Y-64392914D01*
X125776310Y-64297676D02*
X126014405Y-64392914D01*
X126014405Y-64392914D02*
X126252500Y-64297676D01*
X125871548Y-64583390D02*
X126014405Y-64392914D01*
X126014405Y-64392914D02*
X126157262Y-64583390D01*
X150166666Y-107154819D02*
X149833333Y-106678628D01*
X149595238Y-107154819D02*
X149595238Y-106154819D01*
X149595238Y-106154819D02*
X149976190Y-106154819D01*
X149976190Y-106154819D02*
X150071428Y-106202438D01*
X150071428Y-106202438D02*
X150119047Y-106250057D01*
X150119047Y-106250057D02*
X150166666Y-106345295D01*
X150166666Y-106345295D02*
X150166666Y-106488152D01*
X150166666Y-106488152D02*
X150119047Y-106583390D01*
X150119047Y-106583390D02*
X150071428Y-106631009D01*
X150071428Y-106631009D02*
X149976190Y-106678628D01*
X149976190Y-106678628D02*
X149595238Y-106678628D01*
X150595238Y-106631009D02*
X150928571Y-106631009D01*
X151071428Y-107154819D02*
X150595238Y-107154819D01*
X150595238Y-107154819D02*
X150595238Y-106154819D01*
X150595238Y-106154819D02*
X151071428Y-106154819D01*
X151833333Y-106631009D02*
X151500000Y-106631009D01*
X151500000Y-107154819D02*
X151500000Y-106154819D01*
X151500000Y-106154819D02*
X151976190Y-106154819D01*
X152500000Y-106154819D02*
X152500000Y-106392914D01*
X152261905Y-106297676D02*
X152500000Y-106392914D01*
X152500000Y-106392914D02*
X152738095Y-106297676D01*
X152357143Y-106583390D02*
X152500000Y-106392914D01*
X152500000Y-106392914D02*
X152642857Y-106583390D01*
X153261905Y-106154819D02*
X153261905Y-106392914D01*
X153023810Y-106297676D02*
X153261905Y-106392914D01*
X153261905Y-106392914D02*
X153500000Y-106297676D01*
X153119048Y-106583390D02*
X153261905Y-106392914D01*
X153261905Y-106392914D02*
X153404762Y-106583390D01*
X148918571Y-111364700D02*
X150061429Y-111364700D01*
X149490000Y-111936128D02*
X149490000Y-110793271D01*
X180166666Y-62444819D02*
X179833333Y-61968628D01*
X179595238Y-62444819D02*
X179595238Y-61444819D01*
X179595238Y-61444819D02*
X179976190Y-61444819D01*
X179976190Y-61444819D02*
X180071428Y-61492438D01*
X180071428Y-61492438D02*
X180119047Y-61540057D01*
X180119047Y-61540057D02*
X180166666Y-61635295D01*
X180166666Y-61635295D02*
X180166666Y-61778152D01*
X180166666Y-61778152D02*
X180119047Y-61873390D01*
X180119047Y-61873390D02*
X180071428Y-61921009D01*
X180071428Y-61921009D02*
X179976190Y-61968628D01*
X179976190Y-61968628D02*
X179595238Y-61968628D01*
X180595238Y-61921009D02*
X180928571Y-61921009D01*
X181071428Y-62444819D02*
X180595238Y-62444819D01*
X180595238Y-62444819D02*
X180595238Y-61444819D01*
X180595238Y-61444819D02*
X181071428Y-61444819D01*
X181833333Y-61921009D02*
X181500000Y-61921009D01*
X181500000Y-62444819D02*
X181500000Y-61444819D01*
X181500000Y-61444819D02*
X181976190Y-61444819D01*
X182500000Y-61444819D02*
X182500000Y-61682914D01*
X182261905Y-61587676D02*
X182500000Y-61682914D01*
X182500000Y-61682914D02*
X182738095Y-61587676D01*
X182357143Y-61873390D02*
X182500000Y-61682914D01*
X182500000Y-61682914D02*
X182642857Y-61873390D01*
X183261905Y-61444819D02*
X183261905Y-61682914D01*
X183023810Y-61587676D02*
X183261905Y-61682914D01*
X183261905Y-61682914D02*
X183500000Y-61587676D01*
X183119048Y-61873390D02*
X183261905Y-61682914D01*
X183261905Y-61682914D02*
X183404762Y-61873390D01*
X148104819Y-86173333D02*
X147628628Y-86506666D01*
X148104819Y-86744761D02*
X147104819Y-86744761D01*
X147104819Y-86744761D02*
X147104819Y-86363809D01*
X147104819Y-86363809D02*
X147152438Y-86268571D01*
X147152438Y-86268571D02*
X147200057Y-86220952D01*
X147200057Y-86220952D02*
X147295295Y-86173333D01*
X147295295Y-86173333D02*
X147438152Y-86173333D01*
X147438152Y-86173333D02*
X147533390Y-86220952D01*
X147533390Y-86220952D02*
X147581009Y-86268571D01*
X147581009Y-86268571D02*
X147628628Y-86363809D01*
X147628628Y-86363809D02*
X147628628Y-86744761D01*
X147581009Y-85744761D02*
X147581009Y-85411428D01*
X148104819Y-85268571D02*
X148104819Y-85744761D01*
X148104819Y-85744761D02*
X147104819Y-85744761D01*
X147104819Y-85744761D02*
X147104819Y-85268571D01*
X147581009Y-84506666D02*
X147581009Y-84839999D01*
X148104819Y-84839999D02*
X147104819Y-84839999D01*
X147104819Y-84839999D02*
X147104819Y-84363809D01*
X147104819Y-83839999D02*
X147342914Y-83839999D01*
X147247676Y-84078094D02*
X147342914Y-83839999D01*
X147342914Y-83839999D02*
X147247676Y-83601904D01*
X147533390Y-83982856D02*
X147342914Y-83839999D01*
X147342914Y-83839999D02*
X147533390Y-83697142D01*
X147104819Y-83078094D02*
X147342914Y-83078094D01*
X147247676Y-83316189D02*
X147342914Y-83078094D01*
X147342914Y-83078094D02*
X147247676Y-82839999D01*
X147533390Y-83220951D02*
X147342914Y-83078094D01*
X147342914Y-83078094D02*
X147533390Y-82935237D01*
X138916666Y-93454819D02*
X138583333Y-92978628D01*
X138345238Y-93454819D02*
X138345238Y-92454819D01*
X138345238Y-92454819D02*
X138726190Y-92454819D01*
X138726190Y-92454819D02*
X138821428Y-92502438D01*
X138821428Y-92502438D02*
X138869047Y-92550057D01*
X138869047Y-92550057D02*
X138916666Y-92645295D01*
X138916666Y-92645295D02*
X138916666Y-92788152D01*
X138916666Y-92788152D02*
X138869047Y-92883390D01*
X138869047Y-92883390D02*
X138821428Y-92931009D01*
X138821428Y-92931009D02*
X138726190Y-92978628D01*
X138726190Y-92978628D02*
X138345238Y-92978628D01*
X139345238Y-92931009D02*
X139678571Y-92931009D01*
X139821428Y-93454819D02*
X139345238Y-93454819D01*
X139345238Y-93454819D02*
X139345238Y-92454819D01*
X139345238Y-92454819D02*
X139821428Y-92454819D01*
X140583333Y-92931009D02*
X140250000Y-92931009D01*
X140250000Y-93454819D02*
X140250000Y-92454819D01*
X140250000Y-92454819D02*
X140726190Y-92454819D01*
X141250000Y-92454819D02*
X141250000Y-92692914D01*
X141011905Y-92597676D02*
X141250000Y-92692914D01*
X141250000Y-92692914D02*
X141488095Y-92597676D01*
X141107143Y-92883390D02*
X141250000Y-92692914D01*
X141250000Y-92692914D02*
X141392857Y-92883390D01*
X142011905Y-92454819D02*
X142011905Y-92692914D01*
X141773810Y-92597676D02*
X142011905Y-92692914D01*
X142011905Y-92692914D02*
X142250000Y-92597676D01*
X141869048Y-92883390D02*
X142011905Y-92692914D01*
X142011905Y-92692914D02*
X142154762Y-92883390D01*
X165666666Y-113324819D02*
X165333333Y-112848628D01*
X165095238Y-113324819D02*
X165095238Y-112324819D01*
X165095238Y-112324819D02*
X165476190Y-112324819D01*
X165476190Y-112324819D02*
X165571428Y-112372438D01*
X165571428Y-112372438D02*
X165619047Y-112420057D01*
X165619047Y-112420057D02*
X165666666Y-112515295D01*
X165666666Y-112515295D02*
X165666666Y-112658152D01*
X165666666Y-112658152D02*
X165619047Y-112753390D01*
X165619047Y-112753390D02*
X165571428Y-112801009D01*
X165571428Y-112801009D02*
X165476190Y-112848628D01*
X165476190Y-112848628D02*
X165095238Y-112848628D01*
X166095238Y-112801009D02*
X166428571Y-112801009D01*
X166571428Y-113324819D02*
X166095238Y-113324819D01*
X166095238Y-113324819D02*
X166095238Y-112324819D01*
X166095238Y-112324819D02*
X166571428Y-112324819D01*
X167333333Y-112801009D02*
X167000000Y-112801009D01*
X167000000Y-113324819D02*
X167000000Y-112324819D01*
X167000000Y-112324819D02*
X167476190Y-112324819D01*
X168000000Y-112324819D02*
X168000000Y-112562914D01*
X167761905Y-112467676D02*
X168000000Y-112562914D01*
X168000000Y-112562914D02*
X168238095Y-112467676D01*
X167857143Y-112753390D02*
X168000000Y-112562914D01*
X168000000Y-112562914D02*
X168142857Y-112753390D01*
X168761905Y-112324819D02*
X168761905Y-112562914D01*
X168523810Y-112467676D02*
X168761905Y-112562914D01*
X168761905Y-112562914D02*
X169000000Y-112467676D01*
X168619048Y-112753390D02*
X168761905Y-112562914D01*
X168761905Y-112562914D02*
X168904762Y-112753390D01*
X197166666Y-86324819D02*
X196833333Y-85848628D01*
X196595238Y-86324819D02*
X196595238Y-85324819D01*
X196595238Y-85324819D02*
X196976190Y-85324819D01*
X196976190Y-85324819D02*
X197071428Y-85372438D01*
X197071428Y-85372438D02*
X197119047Y-85420057D01*
X197119047Y-85420057D02*
X197166666Y-85515295D01*
X197166666Y-85515295D02*
X197166666Y-85658152D01*
X197166666Y-85658152D02*
X197119047Y-85753390D01*
X197119047Y-85753390D02*
X197071428Y-85801009D01*
X197071428Y-85801009D02*
X196976190Y-85848628D01*
X196976190Y-85848628D02*
X196595238Y-85848628D01*
X197595238Y-85801009D02*
X197928571Y-85801009D01*
X198071428Y-86324819D02*
X197595238Y-86324819D01*
X197595238Y-86324819D02*
X197595238Y-85324819D01*
X197595238Y-85324819D02*
X198071428Y-85324819D01*
X198833333Y-85801009D02*
X198500000Y-85801009D01*
X198500000Y-86324819D02*
X198500000Y-85324819D01*
X198500000Y-85324819D02*
X198976190Y-85324819D01*
X199500000Y-85324819D02*
X199500000Y-85562914D01*
X199261905Y-85467676D02*
X199500000Y-85562914D01*
X199500000Y-85562914D02*
X199738095Y-85467676D01*
X199357143Y-85753390D02*
X199500000Y-85562914D01*
X199500000Y-85562914D02*
X199642857Y-85753390D01*
X200261905Y-85324819D02*
X200261905Y-85562914D01*
X200023810Y-85467676D02*
X200261905Y-85562914D01*
X200261905Y-85562914D02*
X200500000Y-85467676D01*
X200119048Y-85753390D02*
X200261905Y-85562914D01*
X200261905Y-85562914D02*
X200404762Y-85753390D01*
X200166666Y-66824819D02*
X199833333Y-66348628D01*
X199595238Y-66824819D02*
X199595238Y-65824819D01*
X199595238Y-65824819D02*
X199976190Y-65824819D01*
X199976190Y-65824819D02*
X200071428Y-65872438D01*
X200071428Y-65872438D02*
X200119047Y-65920057D01*
X200119047Y-65920057D02*
X200166666Y-66015295D01*
X200166666Y-66015295D02*
X200166666Y-66158152D01*
X200166666Y-66158152D02*
X200119047Y-66253390D01*
X200119047Y-66253390D02*
X200071428Y-66301009D01*
X200071428Y-66301009D02*
X199976190Y-66348628D01*
X199976190Y-66348628D02*
X199595238Y-66348628D01*
X200595238Y-66301009D02*
X200928571Y-66301009D01*
X201071428Y-66824819D02*
X200595238Y-66824819D01*
X200595238Y-66824819D02*
X200595238Y-65824819D01*
X200595238Y-65824819D02*
X201071428Y-65824819D01*
X201833333Y-66301009D02*
X201500000Y-66301009D01*
X201500000Y-66824819D02*
X201500000Y-65824819D01*
X201500000Y-65824819D02*
X201976190Y-65824819D01*
X202500000Y-65824819D02*
X202500000Y-66062914D01*
X202261905Y-65967676D02*
X202500000Y-66062914D01*
X202500000Y-66062914D02*
X202738095Y-65967676D01*
X202357143Y-66253390D02*
X202500000Y-66062914D01*
X202500000Y-66062914D02*
X202642857Y-66253390D01*
X203261905Y-65824819D02*
X203261905Y-66062914D01*
X203023810Y-65967676D02*
X203261905Y-66062914D01*
X203261905Y-66062914D02*
X203500000Y-65967676D01*
X203119048Y-66253390D02*
X203261905Y-66062914D01*
X203261905Y-66062914D02*
X203404762Y-66253390D01*
X195166666Y-54824819D02*
X194833333Y-54348628D01*
X194595238Y-54824819D02*
X194595238Y-53824819D01*
X194595238Y-53824819D02*
X194976190Y-53824819D01*
X194976190Y-53824819D02*
X195071428Y-53872438D01*
X195071428Y-53872438D02*
X195119047Y-53920057D01*
X195119047Y-53920057D02*
X195166666Y-54015295D01*
X195166666Y-54015295D02*
X195166666Y-54158152D01*
X195166666Y-54158152D02*
X195119047Y-54253390D01*
X195119047Y-54253390D02*
X195071428Y-54301009D01*
X195071428Y-54301009D02*
X194976190Y-54348628D01*
X194976190Y-54348628D02*
X194595238Y-54348628D01*
X195595238Y-54301009D02*
X195928571Y-54301009D01*
X196071428Y-54824819D02*
X195595238Y-54824819D01*
X195595238Y-54824819D02*
X195595238Y-53824819D01*
X195595238Y-53824819D02*
X196071428Y-53824819D01*
X196833333Y-54301009D02*
X196500000Y-54301009D01*
X196500000Y-54824819D02*
X196500000Y-53824819D01*
X196500000Y-53824819D02*
X196976190Y-53824819D01*
X197500000Y-53824819D02*
X197500000Y-54062914D01*
X197261905Y-53967676D02*
X197500000Y-54062914D01*
X197500000Y-54062914D02*
X197738095Y-53967676D01*
X197357143Y-54253390D02*
X197500000Y-54062914D01*
X197500000Y-54062914D02*
X197642857Y-54253390D01*
X198261905Y-53824819D02*
X198261905Y-54062914D01*
X198023810Y-53967676D02*
X198261905Y-54062914D01*
X198261905Y-54062914D02*
X198500000Y-53967676D01*
X198119048Y-54253390D02*
X198261905Y-54062914D01*
X198261905Y-54062914D02*
X198404762Y-54253390D01*
X180666666Y-45824819D02*
X180333333Y-45348628D01*
X180095238Y-45824819D02*
X180095238Y-44824819D01*
X180095238Y-44824819D02*
X180476190Y-44824819D01*
X180476190Y-44824819D02*
X180571428Y-44872438D01*
X180571428Y-44872438D02*
X180619047Y-44920057D01*
X180619047Y-44920057D02*
X180666666Y-45015295D01*
X180666666Y-45015295D02*
X180666666Y-45158152D01*
X180666666Y-45158152D02*
X180619047Y-45253390D01*
X180619047Y-45253390D02*
X180571428Y-45301009D01*
X180571428Y-45301009D02*
X180476190Y-45348628D01*
X180476190Y-45348628D02*
X180095238Y-45348628D01*
X181095238Y-45301009D02*
X181428571Y-45301009D01*
X181571428Y-45824819D02*
X181095238Y-45824819D01*
X181095238Y-45824819D02*
X181095238Y-44824819D01*
X181095238Y-44824819D02*
X181571428Y-44824819D01*
X182333333Y-45301009D02*
X182000000Y-45301009D01*
X182000000Y-45824819D02*
X182000000Y-44824819D01*
X182000000Y-44824819D02*
X182476190Y-44824819D01*
X183000000Y-44824819D02*
X183000000Y-45062914D01*
X182761905Y-44967676D02*
X183000000Y-45062914D01*
X183000000Y-45062914D02*
X183238095Y-44967676D01*
X182857143Y-45253390D02*
X183000000Y-45062914D01*
X183000000Y-45062914D02*
X183142857Y-45253390D01*
X183761905Y-44824819D02*
X183761905Y-45062914D01*
X183523810Y-44967676D02*
X183761905Y-45062914D01*
X183761905Y-45062914D02*
X184000000Y-44967676D01*
X183619048Y-45253390D02*
X183761905Y-45062914D01*
X183761905Y-45062914D02*
X183904762Y-45253390D01*
X164666666Y-51324819D02*
X164333333Y-50848628D01*
X164095238Y-51324819D02*
X164095238Y-50324819D01*
X164095238Y-50324819D02*
X164476190Y-50324819D01*
X164476190Y-50324819D02*
X164571428Y-50372438D01*
X164571428Y-50372438D02*
X164619047Y-50420057D01*
X164619047Y-50420057D02*
X164666666Y-50515295D01*
X164666666Y-50515295D02*
X164666666Y-50658152D01*
X164666666Y-50658152D02*
X164619047Y-50753390D01*
X164619047Y-50753390D02*
X164571428Y-50801009D01*
X164571428Y-50801009D02*
X164476190Y-50848628D01*
X164476190Y-50848628D02*
X164095238Y-50848628D01*
X165095238Y-50801009D02*
X165428571Y-50801009D01*
X165571428Y-51324819D02*
X165095238Y-51324819D01*
X165095238Y-51324819D02*
X165095238Y-50324819D01*
X165095238Y-50324819D02*
X165571428Y-50324819D01*
X166333333Y-50801009D02*
X166000000Y-50801009D01*
X166000000Y-51324819D02*
X166000000Y-50324819D01*
X166000000Y-50324819D02*
X166476190Y-50324819D01*
X167000000Y-50324819D02*
X167000000Y-50562914D01*
X166761905Y-50467676D02*
X167000000Y-50562914D01*
X167000000Y-50562914D02*
X167238095Y-50467676D01*
X166857143Y-50753390D02*
X167000000Y-50562914D01*
X167000000Y-50562914D02*
X167142857Y-50753390D01*
X167761905Y-50324819D02*
X167761905Y-50562914D01*
X167523810Y-50467676D02*
X167761905Y-50562914D01*
X167761905Y-50562914D02*
X168000000Y-50467676D01*
X167619048Y-50753390D02*
X167761905Y-50562914D01*
X167761905Y-50562914D02*
X167904762Y-50753390D01*
X143166666Y-50824819D02*
X142833333Y-50348628D01*
X142595238Y-50824819D02*
X142595238Y-49824819D01*
X142595238Y-49824819D02*
X142976190Y-49824819D01*
X142976190Y-49824819D02*
X143071428Y-49872438D01*
X143071428Y-49872438D02*
X143119047Y-49920057D01*
X143119047Y-49920057D02*
X143166666Y-50015295D01*
X143166666Y-50015295D02*
X143166666Y-50158152D01*
X143166666Y-50158152D02*
X143119047Y-50253390D01*
X143119047Y-50253390D02*
X143071428Y-50301009D01*
X143071428Y-50301009D02*
X142976190Y-50348628D01*
X142976190Y-50348628D02*
X142595238Y-50348628D01*
X143595238Y-50301009D02*
X143928571Y-50301009D01*
X144071428Y-50824819D02*
X143595238Y-50824819D01*
X143595238Y-50824819D02*
X143595238Y-49824819D01*
X143595238Y-49824819D02*
X144071428Y-49824819D01*
X144833333Y-50301009D02*
X144500000Y-50301009D01*
X144500000Y-50824819D02*
X144500000Y-49824819D01*
X144500000Y-49824819D02*
X144976190Y-49824819D01*
X145500000Y-49824819D02*
X145500000Y-50062914D01*
X145261905Y-49967676D02*
X145500000Y-50062914D01*
X145500000Y-50062914D02*
X145738095Y-49967676D01*
X145357143Y-50253390D02*
X145500000Y-50062914D01*
X145500000Y-50062914D02*
X145642857Y-50253390D01*
X146261905Y-49824819D02*
X146261905Y-50062914D01*
X146023810Y-49967676D02*
X146261905Y-50062914D01*
X146261905Y-50062914D02*
X146500000Y-49967676D01*
X146119048Y-50253390D02*
X146261905Y-50062914D01*
X146261905Y-50062914D02*
X146404762Y-50253390D01*
X126666666Y-46324819D02*
X126333333Y-45848628D01*
X126095238Y-46324819D02*
X126095238Y-45324819D01*
X126095238Y-45324819D02*
X126476190Y-45324819D01*
X126476190Y-45324819D02*
X126571428Y-45372438D01*
X126571428Y-45372438D02*
X126619047Y-45420057D01*
X126619047Y-45420057D02*
X126666666Y-45515295D01*
X126666666Y-45515295D02*
X126666666Y-45658152D01*
X126666666Y-45658152D02*
X126619047Y-45753390D01*
X126619047Y-45753390D02*
X126571428Y-45801009D01*
X126571428Y-45801009D02*
X126476190Y-45848628D01*
X126476190Y-45848628D02*
X126095238Y-45848628D01*
X127095238Y-45801009D02*
X127428571Y-45801009D01*
X127571428Y-46324819D02*
X127095238Y-46324819D01*
X127095238Y-46324819D02*
X127095238Y-45324819D01*
X127095238Y-45324819D02*
X127571428Y-45324819D01*
X128333333Y-45801009D02*
X128000000Y-45801009D01*
X128000000Y-46324819D02*
X128000000Y-45324819D01*
X128000000Y-45324819D02*
X128476190Y-45324819D01*
X129000000Y-45324819D02*
X129000000Y-45562914D01*
X128761905Y-45467676D02*
X129000000Y-45562914D01*
X129000000Y-45562914D02*
X129238095Y-45467676D01*
X128857143Y-45753390D02*
X129000000Y-45562914D01*
X129000000Y-45562914D02*
X129142857Y-45753390D01*
X129761905Y-45324819D02*
X129761905Y-45562914D01*
X129523810Y-45467676D02*
X129761905Y-45562914D01*
X129761905Y-45562914D02*
X130000000Y-45467676D01*
X129619048Y-45753390D02*
X129761905Y-45562914D01*
X129761905Y-45562914D02*
X129904762Y-45753390D01*
X108166666Y-55824819D02*
X107833333Y-55348628D01*
X107595238Y-55824819D02*
X107595238Y-54824819D01*
X107595238Y-54824819D02*
X107976190Y-54824819D01*
X107976190Y-54824819D02*
X108071428Y-54872438D01*
X108071428Y-54872438D02*
X108119047Y-54920057D01*
X108119047Y-54920057D02*
X108166666Y-55015295D01*
X108166666Y-55015295D02*
X108166666Y-55158152D01*
X108166666Y-55158152D02*
X108119047Y-55253390D01*
X108119047Y-55253390D02*
X108071428Y-55301009D01*
X108071428Y-55301009D02*
X107976190Y-55348628D01*
X107976190Y-55348628D02*
X107595238Y-55348628D01*
X108595238Y-55301009D02*
X108928571Y-55301009D01*
X109071428Y-55824819D02*
X108595238Y-55824819D01*
X108595238Y-55824819D02*
X108595238Y-54824819D01*
X108595238Y-54824819D02*
X109071428Y-54824819D01*
X109833333Y-55301009D02*
X109500000Y-55301009D01*
X109500000Y-55824819D02*
X109500000Y-54824819D01*
X109500000Y-54824819D02*
X109976190Y-54824819D01*
X110500000Y-54824819D02*
X110500000Y-55062914D01*
X110261905Y-54967676D02*
X110500000Y-55062914D01*
X110500000Y-55062914D02*
X110738095Y-54967676D01*
X110357143Y-55253390D02*
X110500000Y-55062914D01*
X110500000Y-55062914D02*
X110642857Y-55253390D01*
X111261905Y-54824819D02*
X111261905Y-55062914D01*
X111023810Y-54967676D02*
X111261905Y-55062914D01*
X111261905Y-55062914D02*
X111500000Y-54967676D01*
X111119048Y-55253390D02*
X111261905Y-55062914D01*
X111261905Y-55062914D02*
X111404762Y-55253390D01*
X102666666Y-72824819D02*
X102333333Y-72348628D01*
X102095238Y-72824819D02*
X102095238Y-71824819D01*
X102095238Y-71824819D02*
X102476190Y-71824819D01*
X102476190Y-71824819D02*
X102571428Y-71872438D01*
X102571428Y-71872438D02*
X102619047Y-71920057D01*
X102619047Y-71920057D02*
X102666666Y-72015295D01*
X102666666Y-72015295D02*
X102666666Y-72158152D01*
X102666666Y-72158152D02*
X102619047Y-72253390D01*
X102619047Y-72253390D02*
X102571428Y-72301009D01*
X102571428Y-72301009D02*
X102476190Y-72348628D01*
X102476190Y-72348628D02*
X102095238Y-72348628D01*
X103095238Y-72301009D02*
X103428571Y-72301009D01*
X103571428Y-72824819D02*
X103095238Y-72824819D01*
X103095238Y-72824819D02*
X103095238Y-71824819D01*
X103095238Y-71824819D02*
X103571428Y-71824819D01*
X104333333Y-72301009D02*
X104000000Y-72301009D01*
X104000000Y-72824819D02*
X104000000Y-71824819D01*
X104000000Y-71824819D02*
X104476190Y-71824819D01*
X105000000Y-71824819D02*
X105000000Y-72062914D01*
X104761905Y-71967676D02*
X105000000Y-72062914D01*
X105000000Y-72062914D02*
X105238095Y-71967676D01*
X104857143Y-72253390D02*
X105000000Y-72062914D01*
X105000000Y-72062914D02*
X105142857Y-72253390D01*
X105761905Y-71824819D02*
X105761905Y-72062914D01*
X105523810Y-71967676D02*
X105761905Y-72062914D01*
X105761905Y-72062914D02*
X106000000Y-71967676D01*
X105619048Y-72253390D02*
X105761905Y-72062914D01*
X105761905Y-72062914D02*
X105904762Y-72253390D01*
X113566666Y-85824819D02*
X113233333Y-85348628D01*
X112995238Y-85824819D02*
X112995238Y-84824819D01*
X112995238Y-84824819D02*
X113376190Y-84824819D01*
X113376190Y-84824819D02*
X113471428Y-84872438D01*
X113471428Y-84872438D02*
X113519047Y-84920057D01*
X113519047Y-84920057D02*
X113566666Y-85015295D01*
X113566666Y-85015295D02*
X113566666Y-85158152D01*
X113566666Y-85158152D02*
X113519047Y-85253390D01*
X113519047Y-85253390D02*
X113471428Y-85301009D01*
X113471428Y-85301009D02*
X113376190Y-85348628D01*
X113376190Y-85348628D02*
X112995238Y-85348628D01*
X113995238Y-85301009D02*
X114328571Y-85301009D01*
X114471428Y-85824819D02*
X113995238Y-85824819D01*
X113995238Y-85824819D02*
X113995238Y-84824819D01*
X113995238Y-84824819D02*
X114471428Y-84824819D01*
X115233333Y-85301009D02*
X114900000Y-85301009D01*
X114900000Y-85824819D02*
X114900000Y-84824819D01*
X114900000Y-84824819D02*
X115376190Y-84824819D01*
X115900000Y-84824819D02*
X115900000Y-85062914D01*
X115661905Y-84967676D02*
X115900000Y-85062914D01*
X115900000Y-85062914D02*
X116138095Y-84967676D01*
X115757143Y-85253390D02*
X115900000Y-85062914D01*
X115900000Y-85062914D02*
X116042857Y-85253390D01*
X116661905Y-84824819D02*
X116661905Y-85062914D01*
X116423810Y-84967676D02*
X116661905Y-85062914D01*
X116661905Y-85062914D02*
X116900000Y-84967676D01*
X116519048Y-85253390D02*
X116661905Y-85062914D01*
X116661905Y-85062914D02*
X116804762Y-85253390D01*
X124066666Y-99324819D02*
X123733333Y-98848628D01*
X123495238Y-99324819D02*
X123495238Y-98324819D01*
X123495238Y-98324819D02*
X123876190Y-98324819D01*
X123876190Y-98324819D02*
X123971428Y-98372438D01*
X123971428Y-98372438D02*
X124019047Y-98420057D01*
X124019047Y-98420057D02*
X124066666Y-98515295D01*
X124066666Y-98515295D02*
X124066666Y-98658152D01*
X124066666Y-98658152D02*
X124019047Y-98753390D01*
X124019047Y-98753390D02*
X123971428Y-98801009D01*
X123971428Y-98801009D02*
X123876190Y-98848628D01*
X123876190Y-98848628D02*
X123495238Y-98848628D01*
X124495238Y-98801009D02*
X124828571Y-98801009D01*
X124971428Y-99324819D02*
X124495238Y-99324819D01*
X124495238Y-99324819D02*
X124495238Y-98324819D01*
X124495238Y-98324819D02*
X124971428Y-98324819D01*
X125733333Y-98801009D02*
X125400000Y-98801009D01*
X125400000Y-99324819D02*
X125400000Y-98324819D01*
X125400000Y-98324819D02*
X125876190Y-98324819D01*
X126400000Y-98324819D02*
X126400000Y-98562914D01*
X126161905Y-98467676D02*
X126400000Y-98562914D01*
X126400000Y-98562914D02*
X126638095Y-98467676D01*
X126257143Y-98753390D02*
X126400000Y-98562914D01*
X126400000Y-98562914D02*
X126542857Y-98753390D01*
X127161905Y-98324819D02*
X127161905Y-98562914D01*
X126923810Y-98467676D02*
X127161905Y-98562914D01*
X127161905Y-98562914D02*
X127400000Y-98467676D01*
X127019048Y-98753390D02*
X127161905Y-98562914D01*
X127161905Y-98562914D02*
X127304762Y-98753390D01*
X150166666Y-125324819D02*
X149833333Y-124848628D01*
X149595238Y-125324819D02*
X149595238Y-124324819D01*
X149595238Y-124324819D02*
X149976190Y-124324819D01*
X149976190Y-124324819D02*
X150071428Y-124372438D01*
X150071428Y-124372438D02*
X150119047Y-124420057D01*
X150119047Y-124420057D02*
X150166666Y-124515295D01*
X150166666Y-124515295D02*
X150166666Y-124658152D01*
X150166666Y-124658152D02*
X150119047Y-124753390D01*
X150119047Y-124753390D02*
X150071428Y-124801009D01*
X150071428Y-124801009D02*
X149976190Y-124848628D01*
X149976190Y-124848628D02*
X149595238Y-124848628D01*
X150595238Y-124801009D02*
X150928571Y-124801009D01*
X151071428Y-125324819D02*
X150595238Y-125324819D01*
X150595238Y-125324819D02*
X150595238Y-124324819D01*
X150595238Y-124324819D02*
X151071428Y-124324819D01*
X151833333Y-124801009D02*
X151500000Y-124801009D01*
X151500000Y-125324819D02*
X151500000Y-124324819D01*
X151500000Y-124324819D02*
X151976190Y-124324819D01*
X152500000Y-124324819D02*
X152500000Y-124562914D01*
X152261905Y-124467676D02*
X152500000Y-124562914D01*
X152500000Y-124562914D02*
X152738095Y-124467676D01*
X152357143Y-124753390D02*
X152500000Y-124562914D01*
X152500000Y-124562914D02*
X152642857Y-124753390D01*
X153261905Y-124324819D02*
X153261905Y-124562914D01*
X153023810Y-124467676D02*
X153261905Y-124562914D01*
X153261905Y-124562914D02*
X153500000Y-124467676D01*
X153119048Y-124753390D02*
X153261905Y-124562914D01*
X153261905Y-124562914D02*
X153404762Y-124753390D01*
X135566666Y-113324819D02*
X135233333Y-112848628D01*
X134995238Y-113324819D02*
X134995238Y-112324819D01*
X134995238Y-112324819D02*
X135376190Y-112324819D01*
X135376190Y-112324819D02*
X135471428Y-112372438D01*
X135471428Y-112372438D02*
X135519047Y-112420057D01*
X135519047Y-112420057D02*
X135566666Y-112515295D01*
X135566666Y-112515295D02*
X135566666Y-112658152D01*
X135566666Y-112658152D02*
X135519047Y-112753390D01*
X135519047Y-112753390D02*
X135471428Y-112801009D01*
X135471428Y-112801009D02*
X135376190Y-112848628D01*
X135376190Y-112848628D02*
X134995238Y-112848628D01*
X135995238Y-112801009D02*
X136328571Y-112801009D01*
X136471428Y-113324819D02*
X135995238Y-113324819D01*
X135995238Y-113324819D02*
X135995238Y-112324819D01*
X135995238Y-112324819D02*
X136471428Y-112324819D01*
X137233333Y-112801009D02*
X136900000Y-112801009D01*
X136900000Y-113324819D02*
X136900000Y-112324819D01*
X136900000Y-112324819D02*
X137376190Y-112324819D01*
X137900000Y-112324819D02*
X137900000Y-112562914D01*
X137661905Y-112467676D02*
X137900000Y-112562914D01*
X137900000Y-112562914D02*
X138138095Y-112467676D01*
X137757143Y-112753390D02*
X137900000Y-112562914D01*
X137900000Y-112562914D02*
X138042857Y-112753390D01*
X138661905Y-112324819D02*
X138661905Y-112562914D01*
X138423810Y-112467676D02*
X138661905Y-112562914D01*
X138661905Y-112562914D02*
X138900000Y-112467676D01*
X138519048Y-112753390D02*
X138661905Y-112562914D01*
X138661905Y-112562914D02*
X138804762Y-112753390D01*
%TO.C,U3*%
D11*
X162915000Y-105930000D02*
X167035000Y-105930000D01*
X162915000Y-106025000D02*
X162915000Y-105930000D01*
X162915000Y-111050000D02*
X162915000Y-110955000D01*
X167035000Y-105930000D02*
X167035000Y-106025000D01*
X167035000Y-110955000D02*
X167035000Y-111050000D01*
X167035000Y-111050000D02*
X162915000Y-111050000D01*
X162375000Y-106020000D02*
X162135000Y-105690000D01*
X162615000Y-105690000D01*
X162375000Y-106020000D01*
G36*
X162375000Y-106020000D02*
G01*
X162135000Y-105690000D01*
X162615000Y-105690000D01*
X162375000Y-106020000D01*
G37*
%TO.C,U2*%
X171945000Y-99260000D02*
X171945000Y-109540000D01*
X171945000Y-109540000D02*
X177245000Y-109540000D01*
X173595000Y-99260000D02*
X171945000Y-99260000D01*
X177245000Y-99260000D02*
X175595000Y-99260000D01*
X177245000Y-109540000D02*
X177245000Y-99260000D01*
X175595000Y-99260000D02*
G75*
G02*
X173595000Y-99260000I-1000000J0D01*
G01*
%TO.C,U1*%
X162915000Y-99345000D02*
X167035000Y-99345000D01*
X162915000Y-99440000D02*
X162915000Y-99345000D01*
X162915000Y-104465000D02*
X162915000Y-104370000D01*
X167035000Y-99345000D02*
X167035000Y-99440000D01*
X167035000Y-104370000D02*
X167035000Y-104465000D01*
X167035000Y-104465000D02*
X162915000Y-104465000D01*
X162375000Y-99435000D02*
X162135000Y-99105000D01*
X162615000Y-99105000D01*
X162375000Y-99435000D01*
G36*
X162375000Y-99435000D02*
G01*
X162135000Y-99105000D01*
X162615000Y-99105000D01*
X162375000Y-99435000D01*
G37*
%TO.C,REF\u002A\u002A*%
X186650000Y-104565000D02*
X179665000Y-104565000D01*
X179665000Y-108435000D02*
X186650000Y-108435000D01*
X179665000Y-104565000D02*
X179665000Y-108435000D01*
X157650000Y-58065000D02*
X150665000Y-58065000D01*
X150665000Y-61935000D02*
X157650000Y-61935000D01*
X150665000Y-58065000D02*
X150665000Y-61935000D01*
X141340000Y-75886252D02*
X141340000Y-68113748D01*
X146660000Y-75886252D02*
X146660000Y-68113748D01*
X141160000Y-68113748D02*
X141160000Y-75886252D01*
X135840000Y-68113748D02*
X135840000Y-75886252D01*
X119042500Y-65540000D02*
X129462500Y-65540000D01*
X119042500Y-67834000D02*
X119042500Y-65540000D01*
X119042500Y-78460000D02*
X119042500Y-68426000D01*
X129462500Y-65540000D02*
X129462500Y-78460000D01*
X129462500Y-78460000D02*
X119042500Y-78460000D01*
X119042500Y-68130000D02*
X118432500Y-68570000D01*
X118432500Y-67690000D01*
X119042500Y-68130000D01*
G36*
X119042500Y-68130000D02*
G01*
X118432500Y-68570000D01*
X118432500Y-67690000D01*
X119042500Y-68130000D01*
G37*
X144590000Y-108140000D02*
X153310000Y-108140000D01*
X144590000Y-112210000D02*
X144590000Y-108140000D01*
X144590000Y-112210000D02*
X150070000Y-112210000D01*
X152940000Y-112210000D02*
X160910000Y-112210000D01*
X155440000Y-108140000D02*
X160910000Y-108140000D01*
X160910000Y-112210000D02*
X160910000Y-108140000D01*
X174250000Y-63080000D02*
X188750000Y-63080000D01*
X174250000Y-67650000D02*
X174250000Y-63080000D01*
X175520000Y-68920000D02*
X174250000Y-67650000D01*
X175520000Y-68920000D02*
X188750000Y-68920000D01*
X188750000Y-68920000D02*
X188750000Y-63080000D01*
X148400000Y-97790000D02*
X148400000Y-96040000D01*
X150150000Y-97790000D02*
X148400000Y-97790000D01*
X151190000Y-97660000D02*
X184210000Y-97660000D01*
X153630000Y-96370000D02*
X179230000Y-96370000D01*
X179230000Y-96370000D02*
X179230000Y-93630000D01*
X148530000Y-95000000D02*
X148530000Y-74680000D01*
X186870000Y-95000000D02*
X186870000Y-74680000D01*
X153630000Y-93630000D02*
X153630000Y-96370000D01*
X179230000Y-93630000D02*
X153630000Y-93630000D01*
X153630000Y-76050000D02*
X179230000Y-76050000D01*
X179230000Y-76050000D02*
X179230000Y-73310000D01*
X153630000Y-73310000D02*
X153630000Y-76050000D01*
X179230000Y-73310000D02*
X153630000Y-73310000D01*
X151190000Y-72020000D02*
X184210000Y-72020000D01*
X151190000Y-97660000D02*
G75*
G02*
X148530000Y-95000000I0J2660000D01*
G01*
X186870000Y-95000000D02*
G75*
G02*
X184210000Y-97660000I-2660000J0D01*
G01*
X148530000Y-74680000D02*
G75*
G02*
X151190000Y-72020000I2660000J0D01*
G01*
X184210000Y-72020000D02*
G75*
G02*
X186870000Y-74680000I0J-2660000D01*
G01*
X136750000Y-96500000D02*
X136750000Y-98000000D01*
X138000000Y-100500000D02*
X142500000Y-100500000D01*
X142500000Y-94000000D02*
X138000000Y-94000000D01*
X143750000Y-98000000D02*
X143750000Y-96500000D01*
X163165000Y-113565000D02*
X163165000Y-117435000D01*
X163165000Y-117435000D02*
X170150000Y-117435000D01*
X170150000Y-113565000D02*
X163165000Y-113565000D01*
X194665000Y-86565000D02*
X194665000Y-90435000D01*
X194665000Y-90435000D02*
X201650000Y-90435000D01*
X201650000Y-86565000D02*
X194665000Y-86565000D01*
X197665000Y-67065000D02*
X197665000Y-70935000D01*
X197665000Y-70935000D02*
X204650000Y-70935000D01*
X204650000Y-67065000D02*
X197665000Y-67065000D01*
X192665000Y-55065000D02*
X192665000Y-58935000D01*
X192665000Y-58935000D02*
X199650000Y-58935000D01*
X199650000Y-55065000D02*
X192665000Y-55065000D01*
X178165000Y-46065000D02*
X178165000Y-49935000D01*
X178165000Y-49935000D02*
X185150000Y-49935000D01*
X185150000Y-46065000D02*
X178165000Y-46065000D01*
X162165000Y-51565000D02*
X162165000Y-55435000D01*
X162165000Y-55435000D02*
X169150000Y-55435000D01*
X169150000Y-51565000D02*
X162165000Y-51565000D01*
X140665000Y-51065000D02*
X140665000Y-54935000D01*
X140665000Y-54935000D02*
X147650000Y-54935000D01*
X147650000Y-51065000D02*
X140665000Y-51065000D01*
X124165000Y-46565000D02*
X124165000Y-50435000D01*
X124165000Y-50435000D02*
X131150000Y-50435000D01*
X131150000Y-46565000D02*
X124165000Y-46565000D01*
X105665000Y-56065000D02*
X105665000Y-59935000D01*
X105665000Y-59935000D02*
X112650000Y-59935000D01*
X112650000Y-56065000D02*
X105665000Y-56065000D01*
X100165000Y-73065000D02*
X100165000Y-76935000D01*
X100165000Y-76935000D02*
X107150000Y-76935000D01*
X107150000Y-73065000D02*
X100165000Y-73065000D01*
X111065000Y-86065000D02*
X111065000Y-89935000D01*
X111065000Y-89935000D02*
X118050000Y-89935000D01*
X118050000Y-86065000D02*
X111065000Y-86065000D01*
X121565000Y-99565000D02*
X121565000Y-103435000D01*
X121565000Y-103435000D02*
X128550000Y-103435000D01*
X128550000Y-99565000D02*
X121565000Y-99565000D01*
X147665000Y-125565000D02*
X147665000Y-129435000D01*
X147665000Y-129435000D02*
X154650000Y-129435000D01*
X154650000Y-125565000D02*
X147665000Y-125565000D01*
X133065000Y-113565000D02*
X133065000Y-117435000D01*
X133065000Y-117435000D02*
X140050000Y-117435000D01*
X140050000Y-113565000D02*
X133065000Y-113565000D01*
%TD*%
M02*
