%TF.GenerationSoftware,KiCad,Pcbnew,10.0.0*%
%TF.CreationDate,2026-04-10T19:15:22-04:00*%
%TF.ProjectId,chaser,63686173-6572-42e6-9b69-6361645f7063,rev?*%
%TF.SameCoordinates,Original*%
%TF.FileFunction,Soldermask,Bot*%
%TF.FilePolarity,Negative*%
%FSLAX46Y46*%
G04 Gerber Fmt 4.6, Leading zero omitted, Abs format (unit mm)*
G04 Created by KiCad (PCBNEW 10.0.0) date 2026-04-10 19:15:22*
%MOMM*%
%LPD*%
G01*
G04 APERTURE LIST*
G04 Aperture macros list*
%AMRoundRect*
0 Rectangle with rounded corners*
0 $1 Rounding radius*
0 $2 $3 $4 $5 $6 $7 $8 $9 X,Y pos of 4 corners*
0 Add a 4 corners polygon primitive as box body*
4,1,4,$2,$3,$4,$5,$6,$7,$8,$9,$2,$3,0*
0 Add four circle primitives for the rounded corners*
1,1,$1+$1,$2,$3*
1,1,$1+$1,$4,$5*
1,1,$1+$1,$6,$7*
1,1,$1+$1,$8,$9*
0 Add four rect primitives between the rounded corners*
20,1,$1+$1,$2,$3,$4,$5,0*
20,1,$1+$1,$4,$5,$6,$7,0*
20,1,$1+$1,$6,$7,$8,$9,0*
20,1,$1+$1,$8,$9,$2,$3,0*%
G04 Aperture macros list end*
%ADD10RoundRect,0.250000X-0.550000X-0.550000X0.550000X-0.550000X0.550000X0.550000X-0.550000X0.550000X0*%
%ADD11C,1.600000*%
%ADD12RoundRect,0.250001X-0.499999X-0.499999X0.499999X-0.499999X0.499999X0.499999X-0.499999X0.499999X0*%
%ADD13C,1.500000*%
%ADD14R,2.350000X2.350000*%
%ADD15C,1.450000*%
%ADD16R,1.900000X2.100000*%
%ADD17O,1.900000X2.100000*%
%ADD18C,2.000000*%
G04 APERTURE END LIST*
D10*
%TO.C,U2*%
X170785000Y-100590000D03*
D11*
X170785000Y-103130000D03*
X170785000Y-105670000D03*
X170785000Y-108210000D03*
X178405000Y-108210000D03*
X178405000Y-105670000D03*
X178405000Y-103130000D03*
X178405000Y-100590000D03*
%TD*%
D12*
%TO.C,REF\u002A\u002A*%
X120432500Y-68130000D03*
D13*
X120432500Y-75750000D03*
X128052500Y-75750000D03*
X128052500Y-70670000D03*
%TD*%
D14*
%TO.C,REF\u002A\u002A*%
X151500000Y-112000000D03*
D11*
X154375000Y-108350000D03*
%TD*%
D13*
%TO.C,REF\u002A\u002A*%
X175275000Y-66000000D03*
D15*
X177180000Y-66000000D03*
X185820000Y-67000000D03*
D13*
X187725000Y-66000000D03*
%TD*%
D16*
%TO.C,REF\u002A\u002A*%
X155000000Y-95000000D03*
D17*
X157540000Y-95000000D03*
X160080000Y-95000000D03*
X162620000Y-95000000D03*
X165160000Y-95000000D03*
X167700000Y-95000000D03*
X170240000Y-95000000D03*
X172780000Y-95000000D03*
X175320000Y-95000000D03*
X177860000Y-95000000D03*
X177860000Y-74680000D03*
X175320000Y-74680000D03*
X172780000Y-74680000D03*
X170240000Y-74680000D03*
X167700000Y-74680000D03*
X165160000Y-74680000D03*
X162620000Y-74680000D03*
X160080000Y-74680000D03*
X157540000Y-74680000D03*
X155000000Y-74680000D03*
%TD*%
D18*
%TO.C,REF\u002A\u002A*%
X137000000Y-95000000D03*
X143500000Y-95000000D03*
X137000000Y-99500000D03*
X143500000Y-99500000D03*
%TD*%
M02*
