%TF.GenerationSoftware,KiCad,Pcbnew,10.0.0*%
%TF.CreationDate,2026-04-10T19:15:22-04:00*%
%TF.ProjectId,chaser,63686173-6572-42e6-9b69-6361645f7063,rev?*%
%TF.SameCoordinates,Original*%
%TF.FileFunction,Copper,L2,Bot*%
%TF.FilePolarity,Positive*%
%FSLAX46Y46*%
G04 Gerber Fmt 4.6, Leading zero omitted, Abs format (unit mm)*
G04 Created by KiCad (PCBNEW 10.0.0) date 2026-04-10 19:15:22*
%MOMM*%
%LPD*%
G01*
G04 APERTURE LIST*
G04 Aperture macros list*
%AMRoundRect*
0 Rectangle with rounded corners*
0 $1 Rounding radius*
0 $2 $3 $4 $5 $6 $7 $8 $9 X,Y pos of 4 corners*
0 Add a 4 corners polygon primitive as box body*
4,1,4,$2,$3,$4,$5,$6,$7,$8,$9,$2,$3,0*
0 Add four circle primitives for the rounded corners*
1,1,$1+$1,$2,$3*
1,1,$1+$1,$4,$5*
1,1,$1+$1,$6,$7*
1,1,$1+$1,$8,$9*
0 Add four rect primitives between the rounded corners*
20,1,$1+$1,$2,$3,$4,$5,0*
20,1,$1+$1,$4,$5,$6,$7,0*
20,1,$1+$1,$6,$7,$8,$9,0*
20,1,$1+$1,$8,$9,$2,$3,0*%
G04 Aperture macros list end*
%TA.AperFunction,ComponentPad*%
%ADD10RoundRect,0.250000X-0.550000X-0.550000X0.550000X-0.550000X0.550000X0.550000X-0.550000X0.550000X0*%
%TD*%
%TA.AperFunction,ComponentPad*%
%ADD11C,1.600000*%
%TD*%
%TA.AperFunction,ComponentPad*%
%ADD12RoundRect,0.250001X-0.499999X-0.499999X0.499999X-0.499999X0.499999X0.499999X-0.499999X0.499999X0*%
%TD*%
%TA.AperFunction,ComponentPad*%
%ADD13C,1.500000*%
%TD*%
%TA.AperFunction,ComponentPad*%
%ADD14R,2.350000X2.350000*%
%TD*%
%TA.AperFunction,ComponentPad*%
%ADD15R,1.900000X2.100000*%
%TD*%
%TA.AperFunction,ComponentPad*%
%ADD16O,1.900000X2.100000*%
%TD*%
%TA.AperFunction,ComponentPad*%
%ADD17C,2.000000*%
%TD*%
G04 APERTURE END LIST*
D10*
%TO.P,U2,1,GND_1*%
%TO.N,GND*%
X170785000Y-100590000D03*
D11*
%TO.P,U2,2,TRIG_2*%
%TO.N,unconnected-(U2-TRIG-Pad2)*%
X170785000Y-103130000D03*
%TO.P,U2,3,OUT_3*%
%TO.N,unconnected-(U2-OUT-Pad3)*%
X170785000Y-105670000D03*
%TO.P,U2,4,~{RST}_4*%
%TO.N,unconnected-(U2-~{RST}-Pad4)*%
X170785000Y-108210000D03*
%TO.P,U2,5,CONT_5*%
%TO.N,unconnected-(U2-CONT-Pad5)*%
X178405000Y-108210000D03*
%TO.P,U2,6,THRES_6*%
%TO.N,unconnected-(U2-THRES-Pad6)*%
X178405000Y-105670000D03*
%TO.P,U2,7,DISCH_7*%
%TO.N,unconnected-(U2-DISCH-Pad7)*%
X178405000Y-103130000D03*
%TO.P,U2,8,VCC_8*%
%TO.N,unconnected-(U2-VCC-Pad8)*%
X178405000Y-100590000D03*
%TD*%
D12*
%TO.P,REF\u002A\u002A,1*%
%TO.N,N/C*%
X120432500Y-68130000D03*
D13*
%TO.P,REF\u002A\u002A,4*%
X120432500Y-75750000D03*
%TO.P,REF\u002A\u002A,5*%
X128052500Y-75750000D03*
%TO.P,REF\u002A\u002A,7*%
X128052500Y-70670000D03*
%TD*%
D14*
%TO.P,REF\u002A\u002A,1*%
%TO.N,N/C*%
X151500000Y-112000000D03*
D11*
%TO.P,REF\u002A\u002A,2*%
X154375000Y-108350000D03*
%TD*%
D13*
%TO.P,REF\u002A\u002A,*%
%TO.N,*%
X175275000Y-66000000D03*
X187725000Y-66000000D03*
%TD*%
D15*
%TO.P,REF\u002A\u002A,1*%
%TO.N,N/C*%
X155000000Y-95000000D03*
D16*
%TO.P,REF\u002A\u002A,2*%
X157540000Y-95000000D03*
%TO.P,REF\u002A\u002A,3*%
X160080000Y-95000000D03*
%TO.P,REF\u002A\u002A,4*%
X162620000Y-95000000D03*
%TO.P,REF\u002A\u002A,5*%
X165160000Y-95000000D03*
%TO.P,REF\u002A\u002A,6*%
X167700000Y-95000000D03*
%TO.P,REF\u002A\u002A,7*%
X170240000Y-95000000D03*
%TO.P,REF\u002A\u002A,8*%
X172780000Y-95000000D03*
%TO.P,REF\u002A\u002A,9*%
X175320000Y-95000000D03*
%TO.P,REF\u002A\u002A,10*%
X177860000Y-95000000D03*
%TO.P,REF\u002A\u002A,11*%
X177860000Y-74680000D03*
%TO.P,REF\u002A\u002A,12*%
X175320000Y-74680000D03*
%TO.P,REF\u002A\u002A,13*%
X172780000Y-74680000D03*
%TO.P,REF\u002A\u002A,14*%
X170240000Y-74680000D03*
%TO.P,REF\u002A\u002A,15*%
X167700000Y-74680000D03*
%TO.P,REF\u002A\u002A,16*%
X165160000Y-74680000D03*
%TO.P,REF\u002A\u002A,17*%
X162620000Y-74680000D03*
%TO.P,REF\u002A\u002A,18*%
X160080000Y-74680000D03*
%TO.P,REF\u002A\u002A,19*%
X157540000Y-74680000D03*
%TO.P,REF\u002A\u002A,20*%
X155000000Y-74680000D03*
%TD*%
D17*
%TO.P,REF\u002A\u002A,1*%
%TO.N,N/C*%
X137000000Y-95000000D03*
X143500000Y-95000000D03*
%TO.P,REF\u002A\u002A,2*%
X137000000Y-99500000D03*
X143500000Y-99500000D03*
%TD*%
M02*
